<svg xmlns="http://www.w3.org/2000/svg" xmlns:xlink="http://www.w3.org/1999/xlink" width="710" height="710" viewBox="0 0 710 710" fill="none"><g opacity="1"  transform="translate(0 0)  rotate(0)"><mask id="bg-mask-0" fill="white"><use xlink:href="#path_0"></use></mask><g mask="url(#bg-mask-0)" ><path id="减去顶层" fill-rule="evenodd" style="fill:#000000" opacity="1" d="M503.5,398.686c0,2.84 0.2,5.75 0.61,8.75c0.42,3.19 1.06,6.32 1.91,9.39c0.88,3.19 1.96,6.21 3.23,9.05c1.29,2.89 2.74,5.53 4.37,7.91c3.23,4.74 7.01,8.33 11.34,10.76c2.29,1.29 4.78,2.28 7.45,2.96c3.08,0.79 6.45,1.18 10.09,1.18c3.97,0 7.66,-0.37 11.04,-1.1c2.95,-0.64 5.69,-1.56 8.24,-2.76c2.35,-1.11 4.58,-2.49 6.69,-4.13c2.07,-1.61 4.06,-3.49 5.97,-5.66c3.67,-4.16 7.16,-9.49 10.46,-16c1.47,-2.87 2.95,-6.1 4.46,-9.66c0.93,-2.2 1.98,-4.79 3.14,-7.78c2.67,-15.28 4,-30.75 4,-46.41c0,-17.45 -1.65,-34.64 -4.96,-51.56c-3.21,-16.47 -7.94,-32.44 -14.18,-47.91c-6.12,-15.18 -13.59,-29.61 -22.41,-43.29c-8.73,-13.54 -18.6,-26.09 -29.63,-37.66c-11.01,-11.53 -22.94,-21.86 -35.8,-30.97c-12.96,-9.18 -26.61,-16.95 -40.95,-23.31c-14.58,-6.46 -29.62,-11.36 -45.12,-14.68c-15.91,-3.41 -32.06,-5.12 -48.45,-5.12c-16.39,0 -32.54,1.71 -48.45,5.12c-15.5,3.32 -30.54,8.22 -45.12,14.68c-14.34,6.36 -27.99,14.13 -40.95,23.31c-12.86,9.11 -24.8,19.44 -35.8,30.97c-11.03,11.57 -20.9,24.12 -29.63,37.66c-8.82,13.68 -16.29,28.11 -22.41,43.29c-6.24,15.47 -10.97,31.44 -14.19,47.91c-3.3,16.92 -4.95,34.11 -4.95,51.56c0,17.45 1.65,34.64 4.95,51.56c3.22,16.47 7.95,32.44 14.19,47.91c6.12,15.18 13.59,29.61 22.41,43.3c8.73,13.53 18.6,26.08 29.63,37.65c11,11.53 22.94,21.86 35.8,30.97c12.96,9.18 26.61,16.95 40.95,23.31c14.58,6.46 29.62,11.36 45.12,14.68c15.91,3.41 32.06,5.12 48.45,5.12c16.46,0 32.67,-1.72 48.63,-5.16c15.56,-3.35 30.65,-8.28 45.28,-14.79c14.72,-6.56 28.7,-14.6 41.96,-24.13l31.52,43.84c-16.25,11.69 -33.42,21.56 -51.51,29.61c-18.04,8.04 -36.66,14.12 -55.87,18.26c-19.72,4.25 -39.72,6.37 -60.01,6.37c-20.21,0 -40.14,-2.11 -59.78,-6.32c-19.14,-4.11 -37.7,-10.15 -55.68,-18.12c-17.62,-7.81 -34.38,-17.35 -50.27,-28.6c-15.7,-11.13 -30.26,-23.72 -43.67,-37.77c-13.38,-14.04 -25.36,-29.26 -35.94,-45.67c-10.67,-16.56 -19.7,-34 -27.1,-52.35c-7.53,-18.66 -13.23,-37.92 -17.11,-57.76c-3.97,-20.35 -5.95,-40.98 -5.95,-61.91c0,-20.93 1.98,-41.56 5.95,-61.9c3.88,-19.85 9.58,-39.11 17.11,-57.77c7.4,-18.34 16.43,-35.79 27.1,-52.34c10.58,-16.42 22.56,-31.64 35.94,-45.68c13.41,-14.05 27.97,-26.64 43.67,-37.7705c15.89,-11.25 32.65,-20.78 50.27,-28.6c17.98,-7.97 36.54,-14.01 55.68,-18.12c19.64,-4.21 39.57,-6.32 59.78,-6.32c20.21,0 40.14,2.11 59.78,6.32c19.14,4.11 37.7,10.15 55.68,18.12c17.62,7.82 34.38,17.35 50.27,28.6c15.7,11.1305 30.26,23.7205 43.67,37.7705c13.38,14.04 25.36,29.26 35.94,45.68c10.67,16.55 19.7,34 27.1,52.34c7.53,18.66 13.23,37.92 17.1,57.77c3.98,20.34 5.96,40.97 5.96,61.9c0,19.78 -1.78,39.31 -5.33,58.61l-0.45,2.45l-0.89,2.32c-1.75,4.58 -3.33,8.53 -4.74,11.85c-2,4.73 -4.01,9.09 -6.05,13.09c-2.49,4.91 -5.11,9.47 -7.85,13.68c-3.21,4.93 -6.63,9.46 -10.26,13.58c-8.74,9.9 -18.76,17.52 -30.05,22.87c-6.29,2.97 -12.93,5.22 -19.92,6.73c-7.15,1.55 -14.64,2.32 -22.46,2.32c-8.16,0 -15.97,-0.95 -23.43,-2.85c-7.28,-1.86 -14.14,-4.6 -20.58,-8.22c-6.05,-3.4 -11.64,-7.54 -16.77,-12.4c-4.69,-4.45 -8.93,-9.46 -12.72,-15.01l-0.038,-0.056c-1.312,1.517 -2.653,3.01 -4.022,4.48c-7.13,7.66 -14.9,14.52 -23.32,20.6c-8.52,6.15 -17.52,11.37 -27.02,15.65c-9.7,4.38 -19.73,7.69 -30.08,9.95c-10.62,2.31 -21.4,3.47 -32.34,3.47c-10.77,0 -21.39,-1.12 -31.86,-3.37c-10.21,-2.19 -20.1,-5.41 -29.69,-9.66c-9.38,-4.16 -18.29,-9.23 -26.74,-15.21c-8.34,-5.91 -16.06,-12.59 -23.17,-20.04c-7.09,-7.44 -13.44,-15.5 -19.04,-24.19c-5.64,-8.75 -10.41,-17.98 -14.32,-27.67c-3.98,-9.86 -6.99,-20.04 -9.04,-30.52c-2.09,-10.73 -3.14,-21.61 -3.14,-32.64c0,-11.03 1.05,-21.91 3.14,-32.64c2.05,-10.48 5.06,-20.66 9.04,-30.52c3.91,-9.69 8.68,-18.92 14.32,-27.67c5.6,-8.69 11.95,-16.75 19.04,-24.19c7.11,-7.46 14.83,-14.14 23.17,-20.04c8.45,-5.99 17.36,-11.06 26.74,-15.22c9.58,-4.25 19.48,-7.47 29.69,-9.66c10.47,-2.25 21.09,-3.37 31.86,-3.37c10.94,0 21.72,1.16 32.34,3.47c10.35,2.26 20.38,5.57 30.08,9.95c9.5,4.28 18.5,9.5 27.02,15.65c2.693,1.945 5.32,3.969 7.88,6.074v-19.648h54zM449.5,316.166v-3.336l-1.09,0.421c-0.158,-0.405 -0.317,-0.808 -0.48,-1.211c-2.64,-6.53 -5.85,-12.74 -9.65,-18.63c-3.74,-5.81 -7.98,-11.2 -12.71,-16.16c-4.71,-4.94 -9.82,-9.35 -15.31,-13.25c-5.52,-3.91 -11.33,-7.21 -17.42,-9.92c-6.18,-2.74 -12.56,-4.81 -19.12,-6.22c-6.74,-1.45 -13.59,-2.17 -20.54,-2.17c-0.166,0 -0.333,0.001 -0.499,0.002c-0.167,-0.001 -0.334,-0.002 -0.501,-0.002c-6.95,0 -13.8,0.72 -20.54,2.17c-6.56,1.41 -12.94,3.48 -19.12,6.22c-6.09,2.71 -11.9,6.01 -17.42,9.92c-5.49,3.9 -10.6,8.31 -15.31,13.25c-4.73,4.96 -8.97,10.35 -12.71,16.16c-3.8,5.89 -7.01,12.1 -9.64,18.63c-2.69,6.67 -4.73,13.56 -6.12,20.66c-1.43,7.31 -2.14,14.75 -2.14,22.3c0,7.55 0.71,14.98 2.14,22.3c1.39,7.1 3.43,13.99 6.12,20.66c2.63,6.53 5.84,12.74 9.64,18.62c3.74,5.82 7.98,11.21 12.71,16.16c4.71,4.94 9.81,9.36 15.31,13.25c5.52,3.91 11.32,7.21 17.42,9.92c6.18,2.74 12.56,4.81 19.12,6.22c6.74,1.45 13.59,2.17 20.54,2.17c0.167,0 0.334,0 0.501,-0.001c0.166,0.001 0.333,0.001 0.499,0.001c6.95,0 13.8,-0.72 20.54,-2.17c6.56,-1.41 12.94,-3.48 19.12,-6.22c6.1,-2.71 11.9,-6.01 17.42,-9.92c5.5,-3.89 10.6,-8.31 15.31,-13.25c4.73,-4.95 8.97,-10.34 12.71,-16.16c3.8,-5.88 7.01,-12.09 9.65,-18.62c0.163,-0.403 0.323,-0.808 0.481,-1.213l1.089,0.421v-3.333c1.925,-5.375 3.435,-10.889 4.54,-16.535c1.43,-7.31 2.14,-14.75 2.14,-22.3c0,-7.55 -0.71,-14.99 -2.14,-22.3c-1.105,-5.646 -2.615,-11.159 -4.54,-16.534z"></path></g></g><defs><rect id="path_0" x="0" y="0" width="709.9999999999999" height="710" /></defs></svg>