<svg xmlns="http://www.w3.org/2000/svg" xmlns:xlink="http://www.w3.org/1999/xlink" width="410.9892578125" height="710" viewBox="0 0 410.9892578125 710" fill="none"><g opacity="1"  transform="translate(0 0)  rotate(0)"><mask id="bg-mask-0" fill="white"><use xlink:href="#path_0"></use></mask><g mask="url(#bg-mask-0)" ><path id="并集" fill-rule="evenodd" style="fill:#000000" opacity="1" d="M182.812,124.695v-73.695h54.24v72.647c6.818,0.434 13.577,1.085 20.278,1.953c12.2,1.58 24.14,3.87 35.83,6.88c10.5,2.7 20.73,5.96 30.7,9.78c8.75,3.36 17.23,7.11 25.44,11.28c6.98,3.54 13.67,7.33 20.09,11.37c5.19,3.26 10.09,6.63 14.71,10.09c3.39,2.55 6.49,5.04 9.3,7.48c1.58,1.38 2.87,2.55 3.86,3.53l-37.92,38.44l0.13,0.13c-0.05,-0.05 -0.11,-0.1 -0.19,-0.18c-0.37,-0.34 -0.8,-0.73 -1.3,-1.16c-1.83,-1.59 -3.93,-3.27 -6.28,-5.04c-3.44,-2.58 -7.13,-5.11 -11.08,-7.6c-5.01,-3.15 -10.26,-6.12 -15.75,-8.91c-6.54,-3.31 -13.32,-6.32 -20.33,-9c-8.05,-3.09 -16.33,-5.72 -24.83,-7.91c-13.797,-3.554 -28.015,-5.888 -42.658,-7.007v150.257c1.637,0.418 3.306,0.841 5.005,1.27c4.85,1.22 11.93,2.98 21.26,5.27c7.51,1.85 13.07,3.23 16.68,4.13c6.03,1.51 11.34,2.87 15.92,4.08c11.51,3.04 21.3,5.9 29.35,8.57c10.05,3.33 18.71,6.8 25.99,10.39c4.27,2.11 8.19,4.32 11.76,6.64c4.01,2.59 7.54,5.27 10.62,8.04c4.13,3.64 7.88,7.58 11.22,11.82c3.49,4.41 6.5,9.09 9.03,14.03c2.63,5.12 4.7,10.46 6.23,16c1.56,5.69 2.52,11.53 2.88,17.52c0.36,6.06 0.1,12.21 -0.78,18.43c-0.89,6.25 -2.4,12.52 -4.53,18.82c-4.19,12.36 -10.7,24.66 -19.54,36.9c-0.66,1.01 -1.42,2.11 -2.3,3.29c-2.11,2.84 -4.51,5.7 -7.23,8.61c-3.6,3.85 -7.57,7.58 -11.91,11.18c-5.28,4.38 -10.99,8.48 -17.13,12.3c-7.11,4.42 -14.71,8.4 -22.79,11.94c-9.07,3.97 -18.68,7.35 -28.81,10.14c-11.14,3.07 -22.85,5.4 -35.14,7c-5.168,0.672 -10.43,1.214 -15.785,1.626v68.204h-54.24v-68.335c-4.918,-0.387 -9.816,-0.875 -14.695,-1.465c-12.88,-1.56 -25.58,-3.82 -38.07,-6.79c-11.2,-2.66 -22.17987,-5.87 -32.9396,-9.63c-9.44,-3.29 -18.62,-6.98 -27.57,-11.07c-7.6,-3.47 -14.93,-7.18 -21.99,-11.14c-5.7,-3.2 -11.11,-6.49 -16.23,-9.87c-3.75,-2.48 -7.18,-4.9 -10.3,-7.26c-1.74,-1.31 -3.14,-2.42 -4.2,-3.33l34.96,-41.14l-0.08,-0.08c0.07,0.06 0.16,0.14 0.27,0.23c0.47,0.37 1.01,0.79 1.63,1.26c2.2,1.67 4.7,3.42 7.48,5.26c4.03,2.66 8.32,5.27 12.88,7.82c5.77,3.24 11.78,6.28 18.03,9.14c7.42,3.39 15.0596,6.46 22.9196,9.2c9.01,3.15 18.21,5.84 27.61,8.07c13.196,3.135 26.629,5.336 40.295,6.605v-151.662c-4.894,-1.213 -11.572,-2.843 -20.032,-4.903c-7.41,-1.8 -12.9,-3.14 -16.47,-4.02c-5.96,-1.48 -11.2,-2.81 -15.73,-3.99c-5.46,-1.43 -10.44,-2.8 -14.94,-4.09c-5.1,-1.48 -9.8,-2.93 -14.11,-4.37c-9.9897,-3.32 -18.5797,-6.8 -25.7897,-10.44c-4.25,-2.14 -8.15,-4.4 -11.7,-6.77c-3.98,-2.66 -7.65,-5.57 -10.98,-8.72c-7.89,-7.6 -14.3,-15.7 -19.23,-24.29c-2.91,-5.07 -5.29,-10.28 -7.12,-15.62c-2.01,-5.85 -3.36,-11.81 -4.05,-17.88c-0.73,-6.44 -0.72,-12.94 0.04,-19.52c0.77,-6.73 2.32,-13.49 4.64,-20.27c4.67,-13.61 12.34,-27.12 23.01,-40.54c0.88,-1.15 2.01,-2.48 3.39,-3.99c2.29,-2.51 4.87,-5.06 7.73,-7.64c3.82,-3.44 7.97,-6.78 12.45,-10.01c5.47,-3.94 11.3,-7.64 17.49,-11.07c7.21,-4.01 14.8097,-7.61 22.8097,-10.82c9.03,-3.63 18.48,-6.71 28.35,-9.26c10.9,-2.82 22.25,-4.96 34.06,-6.43c2.048,-0.255 4.109,-0.49 6.182,-0.705zM182.812,179.043c-9.32,1.187 -18.243,2.876 -26.742,5.067c-7.62,1.97 -14.87,4.33 -21.74,7.09c-5.9,2.37 -11.47,5.01 -16.7,7.91c-4.34,2.41 -8.38,4.96 -12.12,7.66c-2.89,2.09 -5.5197,4.2 -7.8897,6.34c-1.56,1.4 -2.89,2.71 -3.99,3.92c-0.2308,0.249 -0.4222,0.466 -0.5742,0.637c0.0451,-0.054 0.1089,-0.135 0.1942,-0.247c-0.0712,0.089 -0.1421,0.179 -0.2127,0.268l-0.0373,0.042c0.0078,-0.008 0.0171,-0.018 0.028,-0.03c-3.8294,4.837 -6.9754,9.423 -9.438,13.75c-2.21,3.88 -3.93,7.62 -5.16,11.22c-1.98,5.77 -2.69,11.16 -2.12,16.17c0.97,8.47 5.71,16.82 14.23,25.04c2.05,1.92 5.22,3.97 9.5197,6.14c4.86,2.45 11.04,4.92 18.52,7.42c6.86,2.28 15.42,4.76 25.68,7.45c4.29,1.12 9.3,2.39 15.02,3.81c3.49,0.86 8.91,2.19 16.25,3.97c2.59,0.63 5.017,1.22 7.282,1.773zM93.0283,217.7l0.0093,-0.012l0.0185,-0.021c-0.0102,0.012 -0.0195,0.023 -0.0278,0.033zM237.052,383.708v138.124c2.981,-0.278 5.919,-0.605 8.815,-0.982c9.8,-1.27 19.06,-3.11 27.77,-5.51c7.63,-2.1 14.8,-4.62 21.49,-7.55c5.71,-2.5 11.03,-5.28 15.95,-8.34c4.04,-2.51 7.76,-5.17 11.14,-7.98c2.59,-2.15 4.91,-4.32 6.95,-6.51c1.32,-1.41 2.42,-2.71 3.31,-3.91c0.15,-0.19 0.27,-0.36 0.36,-0.5l0.42,-0.7l0.73,-1c5.87,-8.03 10.05,-15.74 12.55,-23.12c2.01,-5.96 2.87,-11.54 2.56,-16.71c-0.26,-4.35 -1.35,-8.38 -3.26,-12.12c-1.88,-3.66 -4.51,-6.97 -7.88,-9.94c-2.54,-2.29 -6.09,-4.56 -10.63,-6.81c-5.03,-2.48 -11.39,-5 -19.07,-7.55c-6.99,-2.32 -15.7,-4.86 -26.13,-7.61c-4.36,-1.15 -9.44,-2.45 -15.24,-3.91c-3.54,-0.88 -9.03,-2.24 -16.47,-4.07c-5.12,-1.26 -9.575,-2.36 -13.365,-3.302z"></path></g></g><defs><rect id="path_0" x="0" y="0" width="410.9891862942829" height="710" /></defs></svg>