<svg xmlns="http://www.w3.org/2000/svg" xmlns:xlink="http://www.w3.org/1999/xlink" width="493.5107421875" height="710" viewBox="0 0 493.5107421875 710" fill="none"><g opacity="1"  transform="translate(0 0)  rotate(0)"><mask id="bg-mask-0" fill="white"><use xlink:href="#path_0"></use></mask><g mask="url(#bg-mask-0)" ><path id="减去顶层" fill-rule="evenodd" style="fill:#000000" opacity="1" d="M452.36,645.904h-52.5l-0.33,-47.83c-8.31,8.2 -17.19,15.64 -26.65,22.35c-11.46,8.14 -23.56,15.02 -36.28,20.66c-12.99,5.78 -26.41,10.13 -40.23,13.11c-14.2,3.05 -28.59,4.57 -43.21,4.57c-14.6,0 -28.99,-1.52 -43.19,-4.57c-13.82,-2.98 -27.23,-7.35 -40.23,-13.11c-12.72,-5.64 -24.81,-12.54 -36.28,-20.66c-11.33,-8.03 -21.82,-17.12 -31.47,-27.26c-9.6604,-10.12 -18.2704,-21.09 -25.9004,-32.93c-7.67,-11.93 -14.18,-24.5 -19.4901,-37.7c-5.4299,-13.46 -9.53,-27.31 -12.3199,-41.61c-2.85,-14.63 -4.28,-29.48 -4.28,-44.54c0,-15.06 1.43,-29.91 4.28,-44.54c2.7899,-14.3 6.89,-28.16 12.3199,-41.61c5.3101,-13.2 11.8201,-25.77 19.4901,-37.7c7.63,-11.84 16.24,-22.82 25.9004,-32.93c9.65,-10.14 20.14,-19.24 31.47,-27.26c11.47,-8.12 23.56,-15.02 36.28,-20.66c13,-5.77 26.41,-10.14 40.23,-13.11c14.2,-3.05 28.59,-4.57 43.19,-4.57c14.62,0 29.01,1.52 43.21,4.57c13.82,2.97 27.24,7.33 40.23,13.09c12.72,5.66 24.81,12.54 36.28,20.68c9.45,6.71 18.34,14.14 26.65,22.34v-49.06h54.24zM129,331.434c-2.7,3.49 -5.25,7.1 -7.67,10.84c-5.91,9.05 -10.9,18.62 -15,28.68c-4.19,10.27 -7.3604,20.89 -9.5204,31.85c-2.23,11.28 -3.34,22.73 -3.34,34.35c0,11.63 1.11,23.08 3.34,34.36c2.16,10.96 5.3304,21.57 9.5204,31.85c4.1,10.05 9.09,19.63 15,28.7c5.83,8.94 12.4,17.21 19.74,24.84c7.32,7.58 15.24,14.36 23.74,20.33c8.56,6 17.55,11.07 27,15.22c9.56,4.2 19.42,7.37 29.58,9.53c10.4,2.22 20.97,3.32 31.69,3.32c10.74,0 21.31,-1.1 31.71,-3.32c10.17,-2.16 20.02,-5.33 29.58,-9.53c9.44,-4.15 18.45,-9.22 26.98,-15.22c8.53,-5.97 16.45,-12.75 23.75,-20.33c7.34,-7.63 13.93,-15.9 19.75,-24.84c5.91,-9.07 10.9,-18.65 15.01,-28.7c4.18,-10.28 7.36,-20.89 9.51,-31.85c2.23,-11.28 3.33,-22.73 3.33,-34.36c0,-11.62 -1.1,-23.07 -3.33,-34.35c-2.15,-10.96 -5.33,-21.58 -9.51,-31.85c-3.83,-9.36 -8.4,-18.3 -13.78,-26.79c-0.37,-0.59 -0.76,-1.2 -1.13,-1.79c-5.83,-9.12 -12.45,-17.59 -19.85,-25.38c-7.26,-7.59 -15.11,-14.4 -23.59,-20.41c-8.52,-6.04 -17.5,-11.14 -26.92,-15.33c-9.58,-4.26 -19.45,-7.47 -29.61,-9.65c-10.45,-2.25 -21.05,-3.36 -31.82,-3.36c-10.75,0 -21.35,1.11 -31.8,3.36c-10.16,2.18 -20.04,5.39 -29.61,9.65c-9.43,4.19 -18.4,9.3 -26.92,15.33c-8.46,6.01 -16.34,12.82 -23.59,20.44c-4.35,4.57 -8.43,9.38 -12.24,14.41z"></path></g></g><defs><rect id="path_0" x="0" y="0" width="493.5106370856549" height="710" /></defs></svg>