<svg xmlns="http://www.w3.org/2000/svg" xmlns:xlink="http://www.w3.org/1999/xlink" width="462.767578125" height="710" viewBox="0 0 462.767578125 710" fill="none"><g opacity="1"  transform="translate(0 0)  rotate(0)"><mask id="bg-mask-0" fill="white"><use xlink:href="#path_0"></use></mask><g mask="url(#bg-mask-0)" ><path id="减去顶层" fill-rule="evenodd" style="fill:#000000" opacity="1" d="M29.75 42.48L29.75 646.86L83.99 646.86L83.99 597.8C92.3 606 101.19 613.44 110.64 620.15C122.11 628.28 134.2 635.16 146.92 640.82C159.91 646.58 173.33 650.94 187.15 653.91C201.35 656.97 215.74 658.49 230.36 658.49C244.96 658.49 259.35 656.97 273.55 653.91C287.37 650.94 300.78 646.57 313.78 640.8C326.5 635.16 338.59 628.27 350.06 620.15C361.39 612.12 371.88 603.02 381.53 592.89C391.19 582.77 399.8 571.8 407.43 559.96C415.1 548.02 421.61 535.45 426.92 522.25C432.35 508.8 436.45 494.95 439.24 480.64C442.09 466.01 443.52 451.17 443.52 436.1C443.52 421.04 442.09 406.19 439.24 391.57C436.45 377.26 432.35 363.41 426.92 349.96C421.61 336.75 415.1 324.18 407.43 312.25C399.8 300.41 391.19 289.44 381.53 279.32C371.88 269.19 361.39 260.09 350.06 252.06C338.59 243.94 326.5 237.04 313.78 231.4C300.78 225.64 287.37 221.27 273.55 218.29C259.35 215.24 244.96 213.72 230.36 213.72C215.74 213.72 201.35 215.24 187.15 218.29C173.33 221.27 159.91 225.62 146.92 231.4C134.2 237.04 122.1 243.93 110.64 252.06C101.18 258.77 92.3 266.21 83.99 274.41L83.99 52.8L31.16 42.48L29.75 42.48ZM354.52 541.05C357.22 537.56 359.77 533.95 362.19 530.22C368.1 521.17 373.09 511.59 377.19 501.53C381.38 491.26 384.55 480.64 386.71 469.69C388.94 458.4 390.05 446.95 390.05 435.33C390.05 423.71 388.94 412.25 386.71 400.97C384.55 390.02 381.38 379.4 377.19 369.13C373.09 359.07 368.1 349.49 362.19 340.43C356.36 331.48 349.79 323.21 342.45 315.58C335.13 308.01 327.21 301.22 318.71 295.25C310.15 289.25 301.16 284.19 291.71 280.03C282.15 275.83 272.29 272.66 262.13 270.5C251.73 268.29 241.16 267.19 230.44 267.19C219.7 267.19 209.13 268.29 198.73 270.5C188.56 272.66 178.71 275.83 169.15 280.03C159.71 284.19 150.7 289.25 142.17 295.25C133.64 301.22 125.72 308.01 118.42 315.58C111.08 323.21 104.49 331.48 98.67 340.43C92.76 349.49 87.77 359.07 83.66 369.13C79.48 379.4 76.3 390.02 74.15 400.97C71.92 412.25 70.82 423.71 70.82 435.33C70.82 446.95 71.92 458.4 74.15 469.69C76.3 480.64 79.48 491.26 83.66 501.53C87.49 510.89 92.06 519.83 97.44 528.33C97.81 528.91 98.2 529.52 98.57 530.11C104.4 539.24 111.02 547.7 118.42 555.49C125.68 563.09 133.53 569.89 142.01 575.9C150.53 581.95 159.51 587.04 168.93 591.23C178.51 595.49 188.38 598.7 198.54 600.88C208.99 603.13 219.59 604.25 230.36 604.25C241.11 604.25 251.71 603.13 262.16 600.88C272.32 598.7 282.2 595.49 291.77 591.23C301.2 587.04 310.17 581.93 318.69 575.9C327.15 569.89 335.03 563.09 342.28 555.46C346.63 550.89 350.71 546.09 354.52 541.05Z"></path></g></g><defs><rect id="path_0" x="0" y="0" width="462.7673514967112" height="710" /></defs></svg>