<svg xmlns="http://www.w3.org/2000/svg" xmlns:xlink="http://www.w3.org/1999/xlink" width="493.5107421875" height="710" viewBox="0 0 493.5107421875 710" fill="none"><g opacity="1"  transform="translate(0 0)  rotate(0)"><mask id="bg-mask-0" fill="white"><use xlink:href="#path_0"></use></mask><g mask="url(#bg-mask-0)" ><path id="圆形 1 (轮廓)" fill-rule="evenodd" style="fill:#000000" opacity="1" d="M376.937 317.48L415.277 279.12C405.177 269.02 394.207 259.98 382.377 251.99C370.437 243.92 357.837 237.08 344.597 231.48C331.097 225.78 317.167 221.45 302.817 218.52C288.096 215.51 273.167 214 258.027 214C242.887 214 227.957 215.51 213.236 218.52C198.876 221.46 184.956 225.78 171.456 231.49C158.216 237.09 145.617 243.92 133.676 251.99C121.846 259.98 110.886 269.03 100.776 279.13C90.6765 289.24 81.6265 300.2 73.6365 312.03C65.5665 323.97 58.7365 336.57 53.1365 349.81C47.4265 363.31 43.1065 377.23 40.1665 391.59C37.1565 406.31 35.6465 421.24 35.6465 436.38C35.6465 451.52 37.1565 466.45 40.1665 481.17C43.1065 495.53 47.4265 509.46 53.1365 522.95C58.7365 536.2 65.5665 548.79 73.6365 560.74C81.6265 572.56 90.6765 583.53 100.776 593.63C110.886 603.73 121.846 612.78 133.676 620.77C145.617 628.84 158.216 635.68 171.456 641.28C184.956 646.98 198.876 651.31 213.236 654.25C227.957 657.26 242.887 658.76 258.027 658.76C273.167 658.76 288.096 657.26 302.817 654.25C317.167 651.31 331.097 646.99 344.597 641.28C357.837 635.68 370.437 628.84 382.377 620.78C394.207 612.79 405.177 603.74 415.277 593.64L376.937 555.28C369.277 562.93 360.977 569.78 352.027 575.83C342.987 581.93 333.477 587.09 323.467 591.32C313.287 595.63 302.777 598.89 291.937 601.11C280.807 603.39 269.507 604.52 258.027 604.52C246.547 604.52 235.247 603.39 224.117 601.11C213.277 598.89 202.766 595.63 192.587 591.32C182.587 587.09 173.066 581.92 164.036 575.83C155.087 569.78 146.786 562.93 139.137 555.28C131.477 547.63 124.636 539.33 118.586 530.37C112.486 521.34 107.316 511.83 103.086 501.82C98.7765 491.64 95.5165 481.13 93.3065 470.3C91.0265 459.17 89.8865 447.86 89.8865 436.38C89.8865 424.9 91.0265 413.6 93.3065 402.47C95.5165 391.63 98.7765 381.12 103.086 370.94C107.316 360.94 112.486 351.42 118.586 342.39C124.636 333.44 131.477 325.14 139.137 317.49C146.786 309.83 155.087 302.99 164.036 296.94C173.066 290.84 182.587 285.67 192.587 281.44C202.766 277.13 213.277 273.87 224.117 271.66C235.247 269.38 246.547 268.24 258.027 268.24C269.507 268.24 280.807 269.38 291.937 271.66C302.777 273.87 313.287 277.13 323.467 281.44C333.477 285.67 342.987 290.84 352.027 296.94C360.977 302.98 369.277 309.83 376.937 317.48Z"></path></g></g><defs><rect id="path_0" x="0" y="0" width="493.5106370856549" height="710" /></defs></svg>