<svg xmlns="http://www.w3.org/2000/svg" xmlns:xlink="http://www.w3.org/1999/xlink" width="462.767578125" height="710" viewBox="0 0 462.767578125 710" fill="none"><g opacity="1"  transform="translate(0 0)  rotate(0)"><mask id="bg-mask-0" fill="white"><use xlink:href="#path_0"></use></mask><g mask="url(#bg-mask-0)" ><path id="减去顶层" fill-rule="evenodd" style="fill:#000000" opacity="1" d="M359.53 43.483L359.53 275.413C351.22 267.213 342.34 259.773 332.88 253.063C321.42 244.933 309.32 238.043 296.6 232.403C283.61 226.623 270.19 222.273 256.37 219.293C242.17 216.243 227.77 214.723 213.16 214.723C198.56 214.723 184.17 216.243 169.97 219.293C156.15 222.273 142.74 226.643 129.74 232.403C117.02 238.043 104.93 244.943 93.46 253.063C82.13 261.093 71.64 270.193 61.99 280.323C52.33 290.443 43.72 301.413 36.09 313.253C28.42 325.183 21.91 337.753 16.6 350.963C11.17 364.413 7.07 378.263 4.28 392.573C1.43 407.193 0 422.043 0 437.103C0 452.173 1.43 467.013 4.28 481.643C7.07 495.953 11.17 509.803 16.6 523.253C21.91 536.453 28.42 549.023 36.09 560.963C43.72 572.803 52.33 583.773 61.99 593.893C71.64 604.023 82.13 613.123 93.46 621.153C104.93 629.273 117.02 636.163 129.74 641.803C142.74 647.573 156.15 651.943 169.97 654.913C184.17 657.973 198.56 659.493 213.16 659.493C227.77 659.493 242.17 657.973 256.37 654.913C270.19 651.943 283.61 647.583 296.6 641.823C309.32 636.163 321.41 629.283 332.88 621.153C342.33 614.443 351.22 607.003 359.53 598.803L359.53 647.863L413.77 647.863L413.77 53.653L361.72 43.483L359.53 43.483ZM124.83 576.903C133.35 582.933 142.32 588.043 151.75 592.233C161.32 596.493 171.2 599.703 181.36 601.883C191.81 604.133 202.41 605.253 213.16 605.253C223.93 605.253 234.53 604.133 244.98 601.883C255.14 599.703 265.01 596.493 274.59 592.233C284.01 588.043 292.99 582.953 301.51 576.903C309.99 570.893 317.84 564.093 325.1 556.493C332.5 548.703 339.12 540.243 344.95 531.113C345.32 530.523 345.71 529.913 346.08 529.333C351.46 520.833 356.03 511.893 359.86 502.533C364.04 492.263 367.22 481.643 369.37 470.693C371.6 459.403 372.7 447.953 372.7 436.333C372.7 424.713 371.6 413.253 369.37 401.973C367.22 391.023 364.04 380.403 359.86 370.133C355.75 360.073 350.76 350.493 344.85 341.433C339.03 332.483 332.44 324.213 325.1 316.583C317.8 309.013 309.88 302.223 301.35 296.253C292.82 290.253 283.81 285.193 274.37 281.033C264.81 276.833 254.96 273.663 244.79 271.503C234.39 269.293 223.82 268.193 213.08 268.193C202.36 268.193 191.79 269.293 181.39 271.503C171.23 273.663 161.37 276.833 151.81 281.033C142.36 285.193 133.37 290.253 124.81 296.253C116.3 302.223 108.39 309.013 101.07 316.583C93.73 324.213 87.16 332.483 81.33 341.433C75.42 350.493 70.43 360.073 66.33 370.133C62.14 380.403 58.97 391.023 56.81 401.973C54.58 413.253 53.46 424.713 53.46 436.333C53.46 447.953 54.58 459.403 56.81 470.693C58.97 481.643 62.14 492.263 66.33 502.533C70.43 512.593 75.42 522.173 81.33 531.223C83.75 534.953 86.3 538.563 89 542.053C92.81 547.093 96.89 551.893 101.24 556.463C108.49 564.093 116.37 570.893 124.83 576.903Z"></path></g></g><defs><rect id="path_0" x="0" y="0" width="462.7673514967112" height="710" /></defs></svg>