<svg xmlns="http://www.w3.org/2000/svg" xmlns:xlink="http://www.w3.org/1999/xlink" width="493.5107421875" height="710" viewBox="0 0 493.5107421875 710" fill="none"><g opacity="1"  transform="translate(0 0)  rotate(0)"><mask id="bg-mask-0" fill="white"><use xlink:href="#path_0"></use></mask><g mask="url(#bg-mask-0)" ><path  id="圆形 1" style="fill:#000000; opacity:1;" d="M91.4964,464c0.35213,2.28333 0.7495,4.55933 1.1921,6.828c2.1058,10.79267 5.20263,21.25733 9.2905,31.394c4.00733,9.938 8.89667,19.38667 14.668,28.346c5.70533,8.85733 12.16233,17.066 19.371,24.626c7.18733,7.538 14.97867,14.281 23.374,20.229c8.444,5.98333 17.337,11.04667 26.679,15.19c9.48467,4.208 19.268,7.39367 29.35,9.557c10.34533,2.22 20.85167,3.33 31.519,3.33c10.832,0 21.496,-1.144 31.992,-3.432c10.226,-2.22933 20.141,-5.51 29.745,-9.842c9.46,-4.26733 18.45067,-9.47833 26.972,-15.633c8.47467,-6.122 16.318,-13.056 23.53,-20.802l39.522,36.798c-9.618,10.33 -20.09567,19.58933 -31.433,27.778c-11.47533,8.28867 -23.604,15.316 -36.386,21.082c-13.048,5.88667 -26.53133,10.34667 -40.45,13.38c-14.28467,3.114 -28.782,4.671 -43.492,4.671c-14.48667,0 -28.76967,-1.51067 -42.849,-4.532c-13.72267,-2.94467 -27.028,-7.27567 -39.916,-12.993c-12.626,-5.60067 -24.62667,-12.43067 -36.002,-20.49c-11.23533,-7.96067 -21.6475,-16.96967 -31.2365,-27.027c-9.56753,-10.034 -18.1296,-20.91667 -25.6862,-32.648c-7.6182,-11.82667 -14.069,-24.29067 -19.3524,-37.392c-5.37513,-13.32867 -9.44517,-27.07867 -12.2101,-41.25c-2.83193,-14.51533 -4.2479,-29.238 -4.2479,-44.168c0,-14.93 1.41597,-29.65267 4.2479,-44.168c2.76493,-14.17133 6.83497,-27.92133 12.2101,-41.25c5.2834,-13.10133 11.7342,-25.56533 19.3524,-37.392c7.5566,-11.73133 16.11867,-22.614 25.6862,-32.648c9.589,-10.05733 20.00117,-19.06633 31.2365,-27.027c11.37533,-8.05933 23.376,-14.88933 36.002,-20.49c12.88867,-5.71733 26.194,-10.04833 39.916,-12.993c14.07867,-3.02133 28.36167,-4.532 42.849,-4.532c14.48667,0 28.76967,1.51067 42.849,4.532c13.722,2.94467 27.02733,7.27567 39.916,12.993c12.626,5.60067 24.62667,12.43067 36.002,20.49c11.23533,7.96067 21.64733,16.96967 31.236,27.027c9.568,10.034 18.13033,20.91667 25.687,32.648c7.618,11.82667 14.06867,24.29067 19.352,37.392c5.37533,13.32867 9.44533,27.07867 12.21,41.25c2.832,14.51533 4.248,29.238 4.248,44.168v27zM91.4964,410h310.8866c-0.352,-2.28333 -0.74933,-4.55933 -1.192,-6.828c-2.10533,-10.79267 -5.202,-21.25733 -9.29,-31.394c-4.008,-9.938 -8.89733,-19.38667 -14.668,-28.346c-5.706,-8.85733 -12.163,-17.066 -19.371,-24.626c-7.18733,-7.538 -14.97867,-14.281 -23.374,-20.229c-8.444,-5.98333 -17.337,-11.04667 -26.679,-15.19c-9.48533,-4.208 -19.26867,-7.39367 -29.35,-9.557c-10.34533,-2.22 -20.85167,-3.33 -31.519,-3.33c-10.66733,0 -21.17367,1.11 -31.519,3.33c-10.082,2.16333 -19.86533,5.349 -29.35,9.557c-9.342,4.14333 -18.235,9.20667 -26.679,15.19c-8.39533,5.948 -16.18667,12.691 -23.374,20.229c-7.20867,7.56 -13.66567,15.76867 -19.371,24.626c-5.77133,8.95933 -10.66067,18.408 -14.668,28.346c-4.08787,10.13667 -7.1847,20.60133 -9.2905,31.394c-0.4426,2.26867 -0.83997,4.54467 -1.1921,6.828z"></path></g></g><defs><rect id="path_0" x="0" y="0" width="493.5106370856549" height="710" /></defs></svg>