<svg xmlns="http://www.w3.org/2000/svg" xmlns:xlink="http://www.w3.org/1999/xlink" width="356" height="710" viewBox="0 0 356 710" fill="none"><g opacity="1"  transform="translate(0 0)  rotate(0)"><mask id="bg-mask-0" fill="white"><use xlink:href="#path_0"></use></mask><g mask="url(#bg-mask-0)" ><g id="并集 (轮廓)" filter="url(#filter_2)"><path id="并集 (轮廓)" fill-rule="evenodd" style="fill:#000000" opacity="1" d="M261.15,87h-1.1c-1.56,0 -3.13,0.04 -4.69,0.12c-1.69,0.08 -3.24,0.19 -4.66,0.34c-1.68,0.16 -3.22,0.35 -4.64,0.57c-1.5,0.22 -3.08,0.49 -4.73,0.82c-1.52,0.3 -3.03,0.64 -4.54,1.02c-1.49,0.37 -3.02,0.79 -4.58,1.27c-1.49,0.45 -2.96,0.93 -4.39,1.45c-1.52,0.54 -3.01,1.11 -4.44,1.71c-1.52,0.63 -2.95,1.26 -4.3,1.9c-1.36,0.65 -2.78,1.36 -4.26,2.15c-1.34,0.72 -2.71,1.49 -4.1,2.32c-1.39,0.84 -2.67,1.66 -3.86,2.45c-1.38,0.93 -2.68,1.84 -3.9,2.75c-1.28,0.95 -2.51,1.91 -3.69,2.88c-1.14,0.93 -2.33,1.96 -3.56,3.08c-1.23,1.12 -2.37,2.19 -3.41,3.23c-1.11,1.13 -2.19,2.26 -3.23,3.41c-1.05,1.15 -2.07,2.34 -3.08,3.57c-1.04,1.27 -2,2.5 -2.88,3.69c-0.86,1.15 -1.77,2.45 -2.75,3.9c-0.88,1.32 -1.7,2.63 -2.48,3.92c-0.8,1.33 -1.56,2.68 -2.28,4.03c-0.76,1.43 -1.48,2.85 -2.15,4.27c-0.72,1.52 -1.36,2.96 -1.91,4.3c-0.6,1.43 -1.16,2.9 -1.7,4.4c-0.51,1.45 -1.02,2.97 -1.5,4.55c-0.45,1.49 -0.85,2.94 -1.19,4.33c-0.4,1.6 -0.75,3.15 -1.05,4.67c-0.31,1.51 -0.58,3.04 -0.8,4.59c-0.25,1.66 -0.44,3.2 -0.58,4.64c-0.17,1.66 -0.29,3.26 -0.36,4.81c-0.07,1.59 -0.11,3.15 -0.11,4.68v84.68h137.19v54h-137.19v325h-54v-325h-74.5v-54h74.5v-84.68c0,-2.34 0.06,-4.8 0.17,-7.36c0.12,-2.44 0.3,-4.85 0.54,-7.23c0.23,-2.43 0.53,-4.87 0.9,-7.32c0.37,-2.55 0.79,-4.98 1.26,-7.29c0.48,-2.42 1.01,-4.78 1.59,-7.09c0.57,-2.31 1.24,-4.74 2.01,-7.29c0.71,-2.31 1.47,-4.61 2.28,-6.89c0.83,-2.32 1.71,-4.61 2.64,-6.86c0.9,-2.15 1.89,-4.39 2.99,-6.72c1.04,-2.21 2.14,-4.38 3.27,-6.51c1.19,-2.24 2.41,-4.39 3.66,-6.45c1.2,-2.02 2.52,-4.1 3.96,-6.26c1.47,-2.2 2.87,-4.18 4.19,-5.96c1.41,-1.9 2.92,-3.83 4.54,-5.81c1.56,-1.9 3.16,-3.76 4.8,-5.57c1.59,-1.76 3.28,-3.53 5.07,-5.33c1.66,-1.67 3.44,-3.36 5.33,-5.07c1.9,-1.72 3.75,-3.32 5.56,-4.8c1.83,-1.5 3.77,-3.01 5.81,-4.54c1.89,-1.4 3.88,-2.8 5.96,-4.19c1.89,-1.27 4,-2.61 6.32,-4.01c2.07,-1.23 4.2,-2.44 6.4,-3.62c2.18,-1.16 4.35,-2.25 6.51,-3.27c2.11,-1 4.35,-1.99 6.71,-2.98c2.25,-0.93 4.52,-1.8 6.82,-2.63c2.31,-0.83 4.66,-1.6 7.05,-2.33c2.38,-0.71 4.72,-1.36 7.04,-1.95c2.39,-0.6 4.8,-1.14 7.22,-1.62c2.54,-0.5 4.93,-0.91 7.16,-1.24c2.3,-0.35 4.74,-0.65 7.31,-0.91c2.32,-0.23 4.77,-0.41 7.36,-0.54c2.46,-0.12 4.91,-0.18 7.37,-0.18h1.71l59.1,1.34l-19.42,52.53z"></path></g></g></g><defs><rect id="path_0" x="0" y="0" width="356" height="710" /><filter id="filter_2" x="31.75" y="29" width="293.111" height="621.5" filterUnits="userSpaceOnUse" color-interpolation-filters="sRGB"><feFlood flood-opacity="0" result="BackgroundImageFix"/>
          <feBlend mode="normal" in="SourceGraphic" in2="BackgroundImageFix" result="shape"/>
          <feGaussianBlur stdDeviation="2" result="effect1_foregroundBlur" /></filter></defs></svg>