<svg xmlns="http://www.w3.org/2000/svg" xmlns:xlink="http://www.w3.org/1999/xlink" width="535.580322265625" height="909" viewBox="0 0 535.580322265625 909" fill="none"><g opacity="1"  transform="translate(0 0)  rotate(0)"><path id="并集" fill-rule="evenodd" style="fill:#000000" opacity="1" d="M317.3,229.26c13.82,2.98 27.24,7.33 40.23,13.1c12.72,5.65 24.81,12.53 36.28,20.67c9.45,6.71 18.34,14.15 26.65,22.35l2.97,-49.07h51.27c0,0 0.01,0.15 0.02,0.44c0,0 1.11,449.11 0,455.01c-1.11,5.9 -2.37,10.6 -3.79,13.93c-5.21,13.18 -9.4,25.72 -16.99,37.66c-7.6,11.97 -16.25,23.08 -25.95,33.33c-9.72,10.28 -20.3,19.5 -31.75,27.64c-11.58,8.25 -23.81,15.23 -36.69,20.96c-13.14,5.85 -26.72,10.28 -40.74,13.29c-14.37,3.09 -28.96,4.64 -43.76,4.64c-14.81,0 -29.4,-1.55 -43.79,-4.64c-14.01,-3.02 -27.6,-7.45 -40.75,-13.3c-12.88,-5.73 -25.11,-12.72 -36.69,-20.97c-11.45,-8.15 -22.04,-17.37 -31.77,-27.65c-9.69,-10.26 -18.33,-21.37 -25.9298,-33.34c-7.67,-12.08 -14.12,-24.79 -19.36,-38.15l49.8098,-19.54c24.33,61.46 81.15,104.57 147.36,104.57c25.03,0 48.72,-6.16 69.82,-17.14c7.35,-3.66 14.41,-7.9 21.18,-12.72c27.83,-21.25 49.85,-52.67 61,-88.85c5.5,-19.71 0,-67.95 0,-67.95c-1.78,1.71 -3.6,3.41 -5.47,5.24c-8.31,8.2 -17.19,15.63 -26.65,22.35c-11.46,8.13 -23.56,15.01 -36.28,20.65c-12.99,5.78 -26.41,10.14 -40.23,13.11c-14.2,3.06 -28.59,4.57 -43.21,4.57c-14.6,0 -28.99,-1.51 -43.19,-4.57c-13.82,-2.97 -27.23,-7.34 -40.23,-13.11c-12.72,-5.64 -24.81,-12.53 -36.28,-20.65c-11.33,-8.03 -21.82,-17.13 -31.47,-27.26c-9.66,-10.12 -18.27,-21.1 -25.8998,-32.94c-7.67,-11.93 -14.18,-24.5 -19.49,-37.7c-5.43,-13.45 -9.53,-27.31 -12.32,-41.61c-2.85,-14.63 -4.28,-29.47 -4.28,-44.54c0,-15.06 1.43,-29.91 4.28,-44.54c2.79,-14.3 6.89,-28.15 12.32,-41.6c5.31,-13.21 11.82,-25.78 19.49,-37.71c7.6298,-11.84 16.2398,-22.81 25.8998,-32.93c9.65,-10.14 20.14,-19.23 31.47,-27.26c11.47,-8.12 23.56,-15.02 36.28,-20.66c13,-5.76 26.41,-10.13 40.23,-13.11c14.2,-3.05 28.59,-4.57 43.19,-4.57c14.62,0 29.01,1.52 43.21,4.57zM117.74,482.2c2.16,10.96 5.33,21.58 9.52,31.85c4.1,10.06 9.09,19.64 15,28.7c5.83,8.94 12.4,17.22 19.74,24.84c7.32,7.58 15.24,14.37 23.74,20.33c8.56,6 17.55,11.07 27,15.22c9.56,4.2 19.42,7.38 29.58,9.53c10.4,2.22 20.97,3.32 31.69,3.32c10.74,0 21.31,-1.1 31.71,-3.32c10.17,-2.15 20.02,-5.33 29.58,-9.53c9.44,-4.15 18.45,-9.22 26.98,-15.22c8.53,-5.96 16.45,-12.75 23.75,-20.33c7.34,-7.62 13.93,-15.9 19.75,-24.84c5.91,-9.06 10.9,-18.64 15.01,-28.7c4.18,-10.27 7.36,-20.89 9.51,-31.85c2.23,-11.28 3.33,-22.73 3.33,-34.35c0,-11.63 -1.1,-23.08 -3.33,-34.36c-2.15,-10.96 -5.33,-21.57 -9.51,-31.85c-3.83,-9.36 -8.4,-18.3 -13.78,-26.79c-0.37,-0.59 -0.76,-1.19 -1.13,-1.78c-5.83,-9.13 -12.45,-17.59 -19.85,-25.39c-7.26,-7.59 -15.11,-14.39 -23.59,-20.41c-8.52,-6.04 -17.5,-11.14 -26.92,-15.32c-9.58,-4.26 -19.45,-7.47 -29.61,-9.66c-10.45,-2.24 -21.05,-3.36 -31.82,-3.36c-10.75,0 -21.35,1.12 -31.8,3.36c-10.16,2.19 -20.04,5.4 -29.61,9.66c-9.43,4.18 -18.4,9.3 -26.92,15.32c-8.46,6.02 -16.34,12.82 -23.59,20.45c-4.35,4.57 -8.43,9.37 -12.24,14.41c-2.7,3.48 -5.25,7.09 -7.67,10.83c-5.91,9.05 -10.9,18.63 -15,28.68c-4.19,10.28 -7.36,20.89 -9.52,31.85c-2.23,11.28 -3.34,22.73 -3.34,34.36c0,11.62 1.11,23.07 3.34,34.35z"></path></g></svg>