<svg xmlns="http://www.w3.org/2000/svg" xmlns:xlink="http://www.w3.org/1999/xlink" width="532" height="710" viewBox="0 0 532 710" fill="none"><g opacity="1"  transform="translate(0 0)  rotate(0)"><mask id="bg-mask-0" fill="white"><use xlink:href="#path_0"></use></mask><g mask="url(#bg-mask-0)" ><path id="并集" fill-rule="evenodd" style="fill:#000000" opacity="1" d="M85.353,411.439v-369.439h54v237.914c37.368,-40.527 90.91,-65.914 150.38,-65.914c112.94,0 204.5,91.56 204.5,204.5v227.5h-53.44l-0.56,-227.5c0,-10.29 -1.02,-20.42 -3.06,-30.39c-1.98,-9.68 -4.9,-19.07 -8.75,-28.17c-3.78,-8.95 -8.4,-17.47 -13.86,-25.55c-5.42,-8.02 -11.56,-15.45 -18.41,-22.31c-6.86,-6.85 -14.29,-12.99 -22.31,-18.41c-8.08,-5.46 -16.6,-10.08 -25.55,-13.86c-9.1,-3.85 -18.49,-6.77 -28.17,-8.75c-9.97,-2.04 -20.1,-3.06 -30.39,-3.06c-10.29,0 -20.42,1.02 -30.39,3.06c-9.68,1.98 -19.07,4.9 -28.17,8.75c-8.95,3.78 -17.47,8.4 -25.55,13.86c-8.02,5.42 -15.45,11.56 -22.31,18.41c-6.85,6.86 -12.99,14.29 -18.41,22.31c-5.46,8.08 -10.08,16.6 -13.86,25.55c-3.85,9.1 -6.77,18.49 -8.75,28.17c-1.63667,7.99867 -2.61667,16.10033 -2.94,24.305v54.684l0.44,178.901h-54.5596v-227.5c0,-2.363 0.0401,-4.717 0.1196,-7.061z"></path></g></g><defs><rect id="path_0" x="0" y="0" width="532" height="710" /></defs></svg>