<svg xmlns="http://www.w3.org/2000/svg" xmlns:xlink="http://www.w3.org/1999/xlink" width="268.550048828125" height="909" viewBox="0 0 268.550048828125 909" fill="none"><g opacity="1"  transform="translate(35.550048828125 0)  rotate(0)"><path id="并集" fill-rule="evenodd" style="fill:#000000" opacity="1" d="M117.42,68c24.3,0 44,18.13 44,40.5c0,22.37 -19.7,40.5 -44,40.5c-24.3001,0 -44,-18.13 -44,-40.5c0,-22.37 19.6999,-40.5 44,-40.5zM143.5,646c0,11.71 -0.84,23.01 -2.53,33.89c-1.62,10.46 -4.01,20.49 -7.18,30.11h-1.05c-0.11,0.33 -0.22,0.67 -0.33,1c-3.33,9.9 -7.43,19.19 -12.29,27.86c-4.91,8.74 -10.53,16.76 -16.85,24.06c-6.35,7.33 -13.3701,13.87 -21.07,19.64c-7.7,5.76 -15.92,10.6 -24.67,14.53c-8.76,3.94 -17.93,6.91 -27.51,8.91c-9.5601,2 -19.4001,3 -29.52005,3h-36.04995v-53.53h36.04995c6.41,0 12.60005,-0.62 18.57005,-1.87c5.77,-1.2 11.28,-2.98 16.5099,-5.34c5.14,-2.31 9.9901,-5.17 14.5501,-8.58c4.5599,-3.4 8.78,-7.34 12.6599,-11.81c3.9601,-4.57 7.5,-9.64 10.6301,-15.2c0.49,-0.88 0.9799,-1.77 1.4499,-2.67h1.0501c2.6199,-5.03 4.8799,-10.38 6.79,-16.04c2.3399,-7.01 4.13,-14.43 5.3399,-22.25c1.2701,-8.18 1.9001,-16.75 1.9001,-25.71v-8h0.2399l0.2301,-411h54l-0.47,419z"></path></g></svg>