<svg xmlns="http://www.w3.org/2000/svg" xmlns:xlink="http://www.w3.org/1999/xlink" width="233.001708984375" height="710" viewBox="0 0 233.001708984375 710" fill="none"><g opacity="1"  transform="translate(0 0)  rotate(0)"><mask id="bg-mask-0" fill="white"><use xlink:href="#path_0"></use></mask><g mask="url(#bg-mask-0)" ><path id="直线 1 (轮廓)" fill-rule="evenodd" style="fill:#000000" opacity="1" d="M113.904 34.2313L59.6643 34.2313L59.6643 540.981C59.6643 548.091 60.3743 555.111 61.7943 562.031C63.1743 568.791 65.2043 575.351 67.8943 581.711C70.5343 587.941 73.7543 593.861 77.5443 599.481C81.3043 605.041 85.5543 610.201 90.3043 614.951C95.0543 619.691 100.204 623.951 105.764 627.701C111.384 631.501 117.314 634.721 123.544 637.351C129.904 640.041 136.454 642.081 143.214 643.461C150.134 644.881 157.154 645.591 164.264 645.591L216.184 645.591L216.184 591.351L164.264 591.351C157.424 591.351 150.894 590.031 144.674 587.401C141.684 586.131 138.834 584.591 136.134 582.761C133.444 580.951 130.954 578.891 128.654 576.591C126.364 574.301 124.304 571.801 122.494 569.121C120.664 566.411 119.114 563.571 117.854 560.571C115.224 554.351 113.904 547.821 113.904 540.981L113.904 34.2313Z"></path></g></g><defs><rect id="path_0" x="0" y="0" width="233.00174341093185" height="710" /></defs></svg>