<svg xmlns="http://www.w3.org/2000/svg" xmlns:xlink="http://www.w3.org/1999/xlink" width="712" height="710" viewBox="0 0 712 710" fill="none"><g opacity="1"  transform="translate(0 0)  rotate(0)"><path id="并集" fill-rule="evenodd" style="fill:#000000" opacity="1" d="M390.233,347.59c-0.6,2.94 -1.06,5.89 -1.39,8.87c0.26,3.65 0.39,7.33 0.39,11.04v224.5l0.27,54h-55.36l0.09,-54v-224.5c0,-3.71 0.13,-7.39 0.39,-11.04c-0.33,-2.98 -0.79,-5.93 -1.39,-8.87c-1.3,-6.33 -3.2,-12.46 -5.72,-18.41c-2.47,-5.85 -5.5,-11.42 -9.07,-16.71c-3.55,-5.25 -7.57,-10.13 -12.06,-14.62c-4.49,-4.49 -9.36,-8.51 -14.62,-12.06c-5.29,-3.57 -10.86,-6.6 -16.71,-9.07c-5.95,-2.52 -12.08,-4.42 -18.41,-5.72c-6.52,-1.33 -13.16,-2 -19.91,-2c-6.75,0 -13.38,0.67 -19.91,2c-6.33,1.3 -12.46,3.2 -18.41,5.72c-5.85,2.47 -11.42,5.5 -16.71,9.07c-5.25,3.55 -10.13,7.57 -14.62,12.06c-4.49,4.49 -8.51,9.37 -12.06,14.62c-3.57,5.29 -6.6,10.86 -9.07,16.71c-2.52,5.95 -4.42,12.08 -5.72,18.41c-0.87,4.27 -1.46,8.59 -1.76,12.95v285.46h-54.2396v-420h54.2396v24.87c26.54,-22.38 60.83,-35.87 98.26,-35.87c51.72,0 97.42,25.75 125,65.12c27.58,-39.37 73.28,-65.12 125,-65.12c84.22,0 152.5,68.28 152.5,152.5v278.5h-53.3l-0.7,-54v-224.5c0,-6.75 -0.67,-13.38 -2,-19.91c-1.3,-6.33 -3.2,-12.46 -5.72,-18.41c-2.47,-5.85 -5.5,-11.42 -9.07,-16.71c-3.55,-5.25 -7.57,-10.13 -12.06,-14.62c-4.49,-4.49 -9.36,-8.51 -14.62,-12.06c-5.29,-3.57 -10.86,-6.6 -16.71,-9.07c-5.95,-2.52 -12.08,-4.42 -18.41,-5.72c-6.52,-1.33 -13.16,-2 -19.91,-2c-6.75,0 -13.38,0.67 -19.91,2c-6.33,1.3 -12.46,3.2 -18.41,5.72c-5.85,2.47 -11.42,5.5 -16.71,9.07c-5.25,3.55 -10.13,7.57 -14.62,12.06c-4.49,4.49 -8.51,9.37 -12.06,14.62c-3.57,5.29 -6.6,10.86 -9.07,16.71c-2.52,5.95 -4.42,12.08 -5.72,18.41z"></path></g></svg>