<svg xmlns="http://www.w3.org/2000/svg" xmlns:xlink="http://www.w3.org/1999/xlink" width="535.5803833007812" height="710" viewBox="0 0 535.5803833007812 710" fill="none"><g opacity="1"  transform="translate(0 0)  rotate(0)"><mask id="bg-mask-0" fill="white"><use xlink:href="#path_0"></use></mask><g mask="url(#bg-mask-0)" ><path  id="圆形 1" style="fill:#000000; opacity:1;" d="M267.79,268c-10.62867,0 -21.09033,1.10567 -31.385,3.317c-10.03267,2.15467 -19.77367,5.32933 -29.223,9.524c-9.336,4.14467 -18.23167,9.21467 -26.687,15.21c-8.43933,5.98333 -16.27767,12.773 -23.515,20.369c-7.28133,7.642 -13.807,15.94467 -19.577,24.908c-5.84733,9.084 -10.803,18.668 -14.867,28.752c-4.15133,10.3 -7.297,20.938 -9.437,31.914c-2.206,11.314 -3.309,22.816 -3.309,34.506c0,11.69 1.103,23.192 3.309,34.506c2.14,10.976 5.28567,21.614 9.437,31.914c4.064,10.084 9.01967,19.668 14.867,28.752c5.77,8.96333 12.29567,17.266 19.577,24.908c7.23733,7.596 15.07567,14.38567 23.515,20.369c8.45533,5.99533 17.351,11.06533 26.687,15.21c9.44933,4.19467 19.19033,7.36933 29.223,9.524c10.29467,2.21133 20.75633,3.317 31.385,3.317c10.62867,0 21.09033,-1.10567 31.385,-3.317c10.03267,-2.15467 19.77367,-5.32933 29.223,-9.524c9.336,-4.14467 18.23167,-9.21467 26.687,-15.21c8.43933,-5.98333 16.27767,-12.773 23.515,-20.369c7.28133,-7.642 13.807,-15.94467 19.577,-24.908c5.84733,-9.084 10.803,-18.668 14.867,-28.752c4.15133,-10.3 7.297,-20.938 9.437,-31.914c2.206,-11.314 3.309,-22.816 3.309,-34.506c0,-11.69 -1.103,-23.192 -3.309,-34.506c-2.14,-10.976 -5.28567,-21.614 -9.437,-31.914c-4.064,-10.084 -9.01967,-19.668 -14.867,-28.752c-5.77,-8.96333 -12.29567,-17.266 -19.577,-24.908c-7.23733,-7.596 -15.07567,-14.38567 -23.515,-20.369c-8.45533,-5.99533 -17.351,-11.06533 -26.687,-15.21c-9.44933,-4.19467 -19.19033,-7.36933 -29.223,-9.524c-10.29467,-2.21133 -20.75633,-3.317 -31.385,-3.317zM267.79,160c18.27333,0 36.29433,1.90833 54.063,5.725c17.318,3.71933 34.10633,9.18767 50.365,16.405c15.90533,7.06133 31.017,15.668 45.335,25.82c14.118,10.01067 27.197,21.334 39.237,33.97c11.996,12.59 22.72867,26.24033 32.198,40.951c9.53867,14.81733 17.61433,30.43 24.227,46.838c6.72267,16.68133 11.81267,33.88667 15.27,51.616c3.53667,18.13933 5.305,36.531 5.305,55.175c0,18.644 -1.76833,37.03567 -5.305,55.175c-3.45733,17.72933 -8.54733,34.93467 -15.27,51.616c-6.61267,16.408 -14.68833,32.02067 -24.227,46.838c-9.46933,14.71067 -20.202,28.361 -32.198,40.951c-12.04,12.636 -25.119,23.95933 -39.237,33.97c-14.318,10.152 -29.42967,18.75867 -45.335,25.82c-16.25867,7.21733 -33.047,12.686 -50.365,16.406c-17.76867,3.816 -35.78967,5.724 -54.063,5.724c-18.27333,0 -36.29433,-1.908 -54.063,-5.724c-17.318,-3.72 -34.10633,-9.18867 -50.365,-16.406c-15.90533,-7.06133 -31.017,-15.668 -45.335,-25.82c-14.11827,-10.01067 -27.19727,-21.334 -39.237,-33.97c-11.99607,-12.59 -22.72887,-26.24033 -32.1984,-40.951c-9.5382,-14.81733 -17.61367,-30.43 -24.2264,-46.838c-6.72293,-16.68133 -11.81285,-33.88667 -15.26976,-51.616c-3.53693,-18.13933 -5.30539,-36.531 -5.30537,-55.175c0,-18.644 1.76846,-37.03567 5.30538,-55.175c3.4569,-17.72933 8.54685,-34.93467 15.26985,-51.616c6.61267,-16.408 14.6881,-32.02067 24.2263,-46.838c9.4696,-14.71067 20.2024,-28.361 32.1984,-40.951c12.03973,-12.636 25.11873,-23.95933 39.237,-33.97c14.318,-10.15267 29.42967,-18.75933 45.335,-25.82c16.25867,-7.21733 33.047,-12.68567 50.365,-16.405c17.76867,-3.81667 35.78967,-5.725 54.063,-5.725z"></path></g></g><defs><rect id="path_0" x="0" y="0" width="535.5803963126282" height="710" /></defs></svg>