<svg xmlns="http://www.w3.org/2000/svg" xmlns:xlink="http://www.w3.org/1999/xlink" width="493.5106201171875" height="909" viewBox="0 0 493.5106201171875 909" fill="none"><g opacity="1"  transform="translate(0 0)  rotate(0)"><mask id="bg-mask-0" fill="white"><use xlink:href="#path_0"></use></mask><g mask="url(#bg-mask-0)" ><path id="减去顶层" fill-rule="evenodd" style="fill:#000000" opacity="1" d="M94.01,824.5h-54.24v-598.19h54.24v49.07c8.31,-8.2 17.2,-15.64 26.65,-22.35c11.47,-8.14 23.56,-15.02 36.28,-20.67c12.99,-5.77 26.41,-10.12 40.23,-13.1c14.2,-3.05 28.59,-4.57 43.21,-4.57c14.6,0 28.99,1.52 43.19,4.57c13.82,2.98 27.23,7.35 40.23,13.11c12.72,5.64 24.81,12.54 36.28,20.66c11.33,8.03 21.82,17.12 31.47,27.26c9.66,10.12 18.27,21.09 25.9,32.93c7.67,11.93 14.18,24.5 19.49,37.7c5.43,13.46 9.53,27.31 12.32,41.61c2.85,14.63 4.28,29.48 4.28,44.54c0,15.06 -1.43,29.91 -4.28,44.54c-2.79,14.3 -6.89,28.16 -12.32,41.61c-5.31,13.2 -11.82,25.77 -19.49,37.7c-7.63,11.84 -16.24,22.82 -25.9,32.93c-9.65,10.14 -20.14,19.24 -31.47,27.26c-11.47,8.12 -23.56,15.02 -36.28,20.66c-13,5.77 -26.41,10.14 -40.23,13.11c-14.2,3.05 -28.59,4.57 -43.19,4.57c-14.62,0 -29.01,-1.52 -43.21,-4.57c-13.82,-2.97 -27.24,-7.33 -40.23,-13.11c-12.72,-5.64 -24.82,-12.52 -36.28,-20.66c-9.46,-6.71 -18.34,-14.14 -26.65,-22.34zM328.71,297.27c-8.52,-6.02 -17.49,-11.14 -26.92,-15.32c-9.57,-4.26 -19.45,-7.47 -29.61,-9.66c-10.45,-2.24 -21.05,-3.36 -31.8,-3.36c-10.77,0 -21.37,1.12 -31.82,3.36c-10.16,2.19 -20.03,5.4 -29.61,9.66c-9.42,4.18 -18.4,9.28 -26.92,15.32c-8.48,6.02 -16.33,12.82 -23.59,20.41c-7.4,7.8 -14.02,16.26 -19.85,25.39c-0.37,0.59 -0.76,1.19 -1.13,1.78c-5.38,8.49 -9.95,17.43 -13.78,26.79c-4.18,10.28 -7.36,20.89 -9.51,31.85c-2.23,11.28 -3.33,22.73 -3.33,34.36c0,11.62 1.1,23.07 3.33,34.35c2.15,10.96 5.33,21.58 9.51,31.85c4.11,10.06 9.1,19.63 15.01,28.7c5.82,8.94 12.41,17.22 19.75,24.84c7.3,7.58 15.22,14.37 23.75,20.33c8.53,6 17.54,11.07 26.98,15.22c9.56,4.2 19.41,7.38 29.58,9.53c10.4,2.22 20.97,3.32 31.71,3.32c10.72,0 21.29,-1.1 31.69,-3.32c10.16,-2.15 20.02,-5.33 29.58,-9.53c9.45,-4.15 18.44,-9.22 27,-15.22c8.5,-5.96 16.42,-12.75 23.74,-20.33c7.34,-7.62 13.91,-15.9 19.74,-24.84c5.91,-9.07 10.9,-18.64 15,-28.7c4.19,-10.27 7.36,-20.89 9.52,-31.85c2.23,-11.28 3.34,-22.73 3.34,-34.35c0,-11.63 -1.11,-23.08 -3.34,-34.36c-2.16,-10.96 -5.33,-21.57 -9.52,-31.85c-4.1,-10.05 -9.09,-19.63 -15,-28.68c-2.42,-3.74 -4.97,-7.35 -7.67,-10.83c-3.81,-5.04 -7.89,-9.84 -12.24,-14.42c-7.25,-7.62 -15.13,-14.42 -23.59,-20.44z"></path></g></g><defs><rect id="path_0" x="0" y="0" width="493.5106370856549" height="909" /></defs></svg>