<svg xmlns="http://www.w3.org/2000/svg" xmlns:xlink="http://www.w3.org/1999/xlink" width="275" height="710" viewBox="0 0 275 710" fill="none"><g opacity="1"  transform="translate(0 0)  rotate(0)"><path  id="路径 1" style="fill:#000000; opacity:1;" d="M141.859,355.5v291h-54.0005v-291c0,-3.59867 0.09,-7.134 0.27,-10.606v-129.394h54.0005v24.955c4.48867,-3.03733 9.229,-5.81 14.221,-8.318c7.814,-3.926 16.203,-7.182 25.167,-9.768c17.03267,-4.91267 35.98,-7.369 56.842,-7.369h31.5v54h-31.5c-15.774,0 -29.73267,1.75133 -41.876,5.254c-11.33467,3.26933 -20.85567,8.01233 -28.563,14.229c-3.72667,3.00533 -7.04067,6.36767 -9.942,10.087c-2.972,3.80933 -5.53133,8.01767 -7.678,12.625c-4.616,9.90867 -7.33967,21.647 -8.171,35.215v1.09h-0.063c-0.138,2.6 -0.207,5.26667 -0.207,8z"></path></g></svg>