<svg xmlns="http://www.w3.org/2000/svg" xmlns:xlink="http://www.w3.org/1999/xlink" width="487" height="710" viewBox="0 0 487 710" fill="none"><g opacity="1"  transform="translate(0 0)  rotate(0)"><mask id="bg-mask-0" fill="white"><use xlink:href="#path_0"></use></mask><g mask="url(#bg-mask-0)" ><path id="并集" fill-rule="evenodd" style="fill:#000000" opacity="1" d="M392.965,315.31c0.07,0.06 0.11,0.1 0.13,0.13c-0.04,-0.05 -0.1,-0.1 -0.18,-0.17c-0.36,-0.33 -0.8,-0.71 -1.3,-1.13c-1.82,-1.55 -3.92,-3.19 -6.27,-4.91c-3.44,-2.52 -7.13,-4.98 -11.08,-7.41c-5.01,-3.07 -10.27,-5.97 -15.77,-8.69c-6.55,-3.24 -13.34,-6.18 -20.36,-8.8c-8.06,-3.01 -16.36,-5.59 -24.88,-7.73c-20.2,-5.07 -41.31,-7.6 -63.32,-7.6c-11.58,0 -22.69,0.65 -33.32,1.94c-9.53,1.16 -18.64,2.83 -27.32,5.02c-7.64,1.92 -14.91,4.23 -21.79,6.92c-5.92,2.32 -11.5,4.89 -16.75,7.73c-4.34,2.35 -8.38,4.84 -12.12,7.48c-2.89,2.03 -5.52,4.08 -7.89,6.16c-1.55,1.37 -2.87,2.63 -3.97,3.8c-0.25,0.27 -0.45,0.5 -0.6,0.68c0.04,-0.04 0.1,-0.13 0.2,-0.25c-3.88,4.77 -7.06,9.27 -9.54,13.52c-2.18,3.73 -3.88,7.32 -5.09,10.77c-1.92,5.44 -2.6,10.51 -2.05,15.19c0.93,8.01 5.59,15.96 13.99,23.85c0.84,0.78 2,1.64 3.48,2.61c1.73,1.12 3.74,2.25 6.04,3.38c4.88,2.4 11.08,4.82 18.59,7.26c6.87,2.23 15.45,4.65 25.73,7.28c4.29,1.09 9.31,2.33 15.03,3.71c3.5,0.85 8.92,2.14 16.27,3.88c9.74,2.3 17.16,4.08 22.27,5.32c7.94,1.93 15.26,3.76 21.97,5.5l0.06,-0.22c6.67,1.74 14.05,3.6 22.13,5.58c4.84,1.19 11.91,2.9 21.22,5.13c7.52,1.81 13.08,3.15 16.7,4.03c6.03,1.47 11.33,2.8 15.92,3.98c11.51,2.96 21.29,5.74 29.34,8.35c10.04,3.25 18.69,6.62 25.95,10.12c4.27,2.05 8.18,4.21 11.75,6.46c4.01,2.53 7.55,5.14 10.63,7.85c4.16,3.56 7.91,7.42 11.28,11.58c3.51,4.34 6.55,8.93 9.1,13.79c2.66,5.06 4.76,10.33 6.31,15.81c1.59,5.64 2.56,11.42 2.93,17.35c0.37,6 0.1,12.09 -0.8,18.25c-0.9,6.16 -2.42,12.35 -4.58,18.57c-4.22,12.14 -10.77,24.21 -19.65,36.21c-0.66,0.99 -1.44,2.06 -2.32,3.23c-2.12,2.77 -4.54,5.59 -7.26,8.43c-3.61,3.76 -7.59,7.41 -11.94,10.92c-5.28,4.28 -10.99,8.28 -17.13,12c-7.1,4.3 -14.69,8.18 -22.76,11.62c-9.05,3.87 -18.64,7.16 -28.75,9.87c-23.19,6.23 -48.78,9.34 -76.76,9.34c-14.45,0 -28.73,-0.83 -42.85,-2.5c-12.86,-1.52 -25.53,-3.72 -38.01,-6.61c-11.18,-2.59 -22.14,-5.71 -32.88,-9.37c-9.42,-3.21 -18.6,-6.8 -27.53,-10.78c-7.6003,-3.38 -14.9203,-7 -21.9703,-10.86c-5.7,-3.12 -11.11,-6.32 -16.23,-9.62c-3.75,-2.41 -7.18,-4.77 -10.3,-7.07c-1.74,-1.28 -3.14,-2.37 -4.21,-3.25l34.46,-41.58c-0.04,-0.03 -0.07,-0.05 -0.09,-0.07c0.07,0.05 0.16,0.13 0.27,0.21c0.47,0.37 1.01,0.78 1.63,1.24c2.2,1.62 4.7,3.33 7.48,5.12c4.03,2.6 8.3203,5.14 12.8903,7.64c5.77,3.15 11.78,6.12 18.04,8.91c7.44,3.31 15.09,6.31 22.97,8.99c9.02,3.08 18.24,5.7 27.65,7.88c22.23,5.15 45.12,7.72 68.68,7.72c12.25,0 23.88,-0.7 34.9,-2.1c9.83,-1.25 19.12,-3.04 27.86,-5.39c7.65,-2.05 14.84,-4.51 21.55,-7.38c5.72,-2.44 11.05,-5.16 15.98,-8.15c4.04,-2.45 7.76,-5.04 11.14,-7.78c2.58,-2.09 4.89,-4.2 6.93,-6.32c1.3,-1.36 2.39,-2.62 3.27,-3.77c0.13,-0.18 0.24,-0.32 0.33,-0.45l0.43,-0.69l0.75,-1.01c3.04,-4.05 5.62,-8.03 7.76,-11.95c1.94,-3.54 3.49,-6.98 4.65,-10.34c1.97,-5.66 2.8,-10.92 2.5,-15.8c-0.25,-4.05 -1.29,-7.83 -3.14,-11.34c-1.83,-3.49 -4.42,-6.66 -7.74,-9.52c-2.55,-2.23 -6.1,-4.45 -10.65,-6.64c-5.06,-2.44 -11.44,-4.9 -19.14,-7.39c-7.01,-2.27 -15.74,-4.75 -26.19,-7.44c-4.36,-1.12 -9.44,-2.39 -15.25,-3.81c-3.55,-0.86 -9.05,-2.19 -16.49,-3.98c-9.41,-2.25 -16.57,-3.98 -21.5,-5.19c-7.61,-1.86 -14.64,-3.64 -21.08,-5.3l-0.06,0.21c-6.91,-1.8 -14.54,-3.72 -22.9,-5.75c-5.01,-1.21 -12.33,-2.96 -21.96,-5.24c-7.42,-1.76 -12.92,-3.07 -16.48,-3.93c-5.96,-1.44 -11.21,-2.73 -15.74,-3.89c-11.39,-2.91 -21.07,-5.65 -29.04,-8.24c-9.96,-3.23 -18.55,-6.62 -25.75,-10.16c-4.24,-2.09 -8.14,-4.29 -11.6803,-6.59c-3.99,-2.6 -7.66,-5.44 -11.01,-8.52c-7.92,-7.45 -14.36,-15.39 -19.32,-23.82c-2.94,-5 -5.34,-10.13 -7.2,-15.41c-2.04,-5.78 -3.41,-11.68 -4.11,-17.7c-0.74,-6.37 -0.73,-12.82 0.04,-19.33c0.78,-6.66 2.35,-13.34 4.7,-20.03c4.71,-13.38 12.42,-26.64 23.14,-39.78c0.89,-1.14 2.03,-2.45 3.42,-3.93c2.3,-2.45 4.88,-4.94 7.76,-7.47c3.82,-3.36 7.9803,-6.61 12.4503,-9.76c5.47,-3.85 11.3,-7.44 17.48,-10.79c7.2,-3.9 14.79,-7.41 22.78,-10.54c9.01,-3.52 18.44,-6.52 28.29,-9c22.75,-5.73 47.36,-8.59 73.82,-8.59c13.8,0 27.37,0.84 40.7,2.53c12.17,1.53 24.09,3.77 35.76,6.7c10.48,2.62 20.69,5.8 30.64,9.52c8.74,3.26 17.21,6.92 25.4,10.97c6.97,3.45 13.67,7.15 20.08,11.08c5.19,3.19 10.09,6.47 14.71,9.84c3.39,2.49 6.49,4.92 9.3,7.3c1.59,1.34 2.88,2.49 3.87,3.45z"></path></g></g><defs><rect id="path_0" x="0" y="0" width="487" height="710" /></defs></svg>