<svg xmlns="http://www.w3.org/2000/svg" xmlns:xlink="http://www.w3.org/1999/xlink" width="295" height="710" viewBox="0 0 295 710" fill="none"><g opacity="1"  transform="translate(0 0)  rotate(0)"><mask id="bg-mask-0" fill="white"><use xlink:href="#path_0"></use></mask><g mask="url(#bg-mask-0)" ><path id="路径 1 (轮廓)" fill-rule="evenodd" style="fill:#000000" opacity="1" d="M161.86 91.5L107.86 91.5L107.86 226L23.3601 226L23.3601 280L107.86 280L107.86 508.5C107.86 530.91 111.36 550.96 118.36 568.66C121.94 577.69 126.41 586.04 131.76 593.71C137.1 601.36 143.29 608.26 150.31 614.42C157.16 620.44 164.76 625.69 173.1 630.17C181.13 634.49 189.8 638.07 199.11 640.92C216.76 646.31 236.5 649 258.36 649L289.86 649L289.86 595L258.36 595C250.03 595 242.18 594.51 234.82 593.52C227.67 592.56 221.03 591.15 214.89 589.27C203.26 585.72 193.6 580.57 185.92 573.83C169.88 559.76 161.86 537.98 161.86 508.5L161.86 280L289.86 280L289.86 226L161.86 226L161.86 91.5Z"></path></g></g><defs><rect id="path_0" x="0" y="0" width="295" height="710" /></defs></svg>